<?xml version="1.0" encoding="UTF-8"?>
<svg width="40px" height="40px" viewBox="0 0 40 40" version="1.1" xmlns="http://www.w3.org/2000/svg" xmlns:xlink="http://www.w3.org/1999/xlink">
    <!-- Generator: Sketch 52.2 (67145) - http://www.bohemiancoding.com/sketch -->
    <title>ETH-2</title>
    <desc>Created with Sketch.</desc>
    <defs>
        <linearGradient x1="100%" y1="0%" x2="2.0140896%" y2="97.9859104%" id="linearGradient-1">
            <stop stop-color="#FAD961" offset="0%"></stop>
            <stop stop-color="#F76B1C" offset="100%"></stop>
        </linearGradient>
    </defs>
    <g id="measure" stroke="none" stroke-width="1" fill="none" fill-rule="evenodd">
        <g id="Artboard-Copy-6" transform="translate(-127.000000, -125.000000)" fill="url(#linearGradient-1)">
            <g id="data" transform="translate(107.000000, 105.000000)">
                <g id="ETH">
                    <g id="ETH-2" transform="translate(40.000000, 40.000000) scale(-1, 1) translate(-40.000000, -40.000000) translate(20.000000, 20.000000)">
                        <path d="M19.890625,0 C9.12255271,0 0.390625,8.95582329 0.390625,20 C0.390625,31.0441767 9.12255271,40 19.890625,40 C30.6586973,40 39.390625,31.0441767 39.390625,20 C39.390625,8.95582329 30.6586973,0 19.890625,0 Z M19.9602368,7.46095493 L26.95187,19.1655511 L19.9602368,23.8286479 L12.9642528,19.1655511 L19.9602368,7.46095493 Z M19.890625,31.9767961 L12.5552836,21.4636323 L19.890625,26.474788 L27.2259664,21.4636323 L19.890625,31.9767961 Z" id="Shape"></path>
                    </g>
                </g>
            </g>
        </g>
    </g>
</svg>